<svg width="640" height="720" viewBox="0 0 640 720" fill="none" xmlns="http://www.w3.org/2000/svg" role="img" aria-label="Founder portrait">
  <defs>
    <linearGradient id="bg" x1="0" y1="0" x2="640" y2="720" gradientUnits="userSpaceOnUse">
      <stop stop-color="#E9F3FF"/>
      <stop offset="1" stop-color="#C7DBFF"/>
    </linearGradient>
    <linearGradient id="shirt" x1="190" y1="350" x2="450" y2="720" gradientUnits="userSpaceOnUse">
      <stop stop-color="#1D5BC8"/>
      <stop offset="1" stop-color="#0D347E"/>
    </linearGradient>
  </defs>
  <rect width="640" height="720" rx="42" fill="url(#bg)"/>
  <circle cx="320" cy="246" r="116" fill="#F5CFB5"/>
  <path d="M209 207C221 145 269 116 321 116C373 116 422 146 432 207C425 192 406 178 390 171C370 162 347 159 321 159C294 159 270 163 250 172C233 179 216 192 209 207Z" fill="#0F1F44"/>
  <ellipse cx="320" cy="471" rx="168" ry="190" fill="url(#shirt)"/>
  <rect x="275" y="319" width="90" height="94" rx="44" fill="#F3C7AA"/>
  <rect x="164" y="528" width="312" height="122" rx="24" fill="#1A57C4" fill-opacity="0.14"/>
  <text x="320" y="584" text-anchor="middle" font-family="Segoe UI, Arial, sans-serif" font-size="34" font-weight="700" fill="#0D347E">Deutsch für Leben</text>
  <text x="320" y="624" text-anchor="middle" font-family="Segoe UI, Arial, sans-serif" font-size="21" fill="#1D4CA5">Founder &amp; Method Lead</text>
</svg>
