<svg width="1200" height="520" viewBox="0 0 1200 520" fill="none" xmlns="http://www.w3.org/2000/svg">
  <defs>
    <linearGradient id="sky" x1="600" y1="0" x2="600" y2="520" gradientUnits="userSpaceOnUse">
      <stop stop-color="#D5E7FF"/>
      <stop offset="1" stop-color="#ECF4FF"/>
    </linearGradient>
    <linearGradient id="building" x1="0" y1="0" x2="0" y2="1">
      <stop stop-color="#2E63B8"/>
      <stop offset="1" stop-color="#17386E"/>
    </linearGradient>
  </defs>
  <rect width="1200" height="520" fill="url(#sky)"/>
  <circle cx="980" cy="95" r="44" fill="#A7C9FF"/>
  <rect y="398" width="1200" height="122" fill="#DCEBFF"/>
  <g fill="url(#building)">
    <rect x="100" y="210" width="110" height="188" rx="6"/>
    <rect x="230" y="174" width="128" height="224" rx="6"/>
    <rect x="380" y="236" width="100" height="162" rx="6"/>
    <rect x="500" y="146" width="142" height="252" rx="6"/>
    <rect x="668" y="190" width="110" height="208" rx="6"/>
    <rect x="800" y="160" width="148" height="238" rx="6"/>
    <rect x="972" y="222" width="118" height="176" rx="6"/>
  </g>
  <g fill="#BFD8FF">
    <rect x="125" y="238" width="18" height="18" rx="2"/>
    <rect x="150" y="238" width="18" height="18" rx="2"/>
    <rect x="125" y="264" width="18" height="18" rx="2"/>
    <rect x="150" y="264" width="18" height="18" rx="2"/>
    <rect x="526" y="180" width="20" height="20" rx="2"/>
    <rect x="552" y="180" width="20" height="20" rx="2"/>
    <rect x="578" y="180" width="20" height="20" rx="2"/>
    <rect x="825" y="195" width="22" height="22" rx="2"/>
    <rect x="855" y="195" width="22" height="22" rx="2"/>
    <rect x="885" y="195" width="22" height="22" rx="2"/>
  </g>
  <path d="M0 405C120 380 190 362 320 377C472 394 549 433 707 427C856 421 938 377 1200 360V520H0V405Z" fill="#CFE4FF"/>
</svg>
